# xmcd
#
# Track frame offsets:
#	150
#	18819
#	42735
#	57795
#	81410
#	99913
#	118935
#	135048
#	158433
#	171333
#	188260
#	207658
#	226497
#	242073
#
# Disc length: 3528 seconds
#
# Revision: 1
# Processed by: cddbd v1.5.2PL0 Copyright (c) Steve Scherf et al.
# Submitted via: EZCDAudioConverter 1.3.2.1
#
DISCID=ae0dc60e
DTITLE=La Chat - Bad Influence
DYEAR=2006
DGENRE=Rap
TTITLE0=Intro
TTITLE1=Drop it Off (Feat. Yo Gotti and All Star)
TTITLE2=Bad Influence
TTITLE3=9 Times
TTITLE4=Baby Momma Drama (Feat. Yo Gotti)
TTITLE5=Dear Nina (Feat. V-Slash)
TTITLE6=Real Love Song
TTITLE7=Pass The Dro
TTITLE8=Tell Me Anything
TTITLE9=Get Doe (Feat. Gucci Manne and All Star)
TTITLE10=Whatever (Feat. D'Nero)
TTITLE11=What Else
TTITLE12=Back 2 Da Block
TTITLE13=Fight
EXTD=
EXTT0=
EXTT1=
EXTT2=
EXTT3=
EXTT4=
EXTT5=
EXTT6=
EXTT7=
EXTT8=
EXTT9=
EXTT10=
EXTT11=
EXTT12=
EXTT13=
PLAYORDER=
